<svg width="24" height="24" viewBox="0 0 24 24" fill="none" xmlns="http://www.w3.org/2000/svg">
<path d="M20.707 5.82606L17.172 2.29306C16.9855 2.10661 16.7329 2.00138 16.4692 2.00025C16.2055 1.99913 15.9521 2.10221 15.764 2.28706L7.096 10.8201C6.96045 10.9535 6.86574 11.1227 6.823 11.3081L5.799 15.7451L4 18.0001H6.828L7.97 16.8711L11.558 16.0431C11.738 16.0011 11.903 15.9101 12.035 15.7811L20.702 7.24606C20.7961 7.15342 20.8708 7.04309 20.922 6.9214C20.9732 6.79972 20.9998 6.66911 21.0003 6.5371C21.0008 6.40509 20.9751 6.27429 20.9247 6.15225C20.8744 6.03021 20.8004 5.91935 20.707 5.82606ZM11.338 13.6591L9.217 11.5391L16.46 4.40806L18.58 6.52806L11.338 13.6591ZM4 20.0001H20V22.0001H4V20.0001Z" fill="black"/>
</svg>
