<svg width="71" height="21" viewBox="0 0 71 21" fill="none" xmlns="http://www.w3.org/2000/svg">
<path d="M8.72161 8.73602C8.72161 9.30535 8.58525 9.82802 8.31255 10.304C8.03985 10.7707 7.62106 11.1487 7.05617 11.438C6.49129 11.7274 5.79006 11.872 4.95247 11.872H3.40391V15.4H0.905762V5.57202H4.95247C5.77058 5.57202 6.46207 5.70735 7.02696 5.97802C7.59184 6.24869 8.0155 6.62202 8.29794 7.09802C8.58038 7.57402 8.72161 8.12002 8.72161 8.73602ZM4.76255 9.96802C5.23978 9.96802 5.59527 9.86069 5.82901 9.64602C6.06276 9.43136 6.17963 9.12802 6.17963 8.73602C6.17963 8.34402 6.06276 8.04069 5.82901 7.82602C5.59527 7.61135 5.23978 7.50402 4.76255 7.50402H3.40391V9.96802H4.76255Z" fill="#226357"/>
<path d="M11.5119 6.77604C11.0736 6.77604 10.7132 6.6547 10.4308 6.41204C10.1581 6.16004 10.0217 5.85204 10.0217 5.48804C10.0217 5.1147 10.1581 4.8067 10.4308 4.56404C10.7132 4.31204 11.0736 4.18604 11.5119 4.18604C11.9404 4.18604 12.291 4.31204 12.5637 4.56404C12.8461 4.8067 12.9874 5.1147 12.9874 5.48804C12.9874 5.85204 12.8461 6.16004 12.5637 6.41204C12.291 6.6547 11.9404 6.77604 11.5119 6.77604ZM12.7536 7.58804V15.4H10.2555V7.58804H12.7536Z" fill="#FE6A15"/>
<path d="M19.6199 15.4L17.1363 12.124V15.4H14.6382V5.04004H17.1363V10.766L19.6053 7.58804H22.6878L19.2985 11.508L22.717 15.4H19.6199Z" fill="#90ADC6"/>
<path d="M23.1992 11.4801C23.1992 10.6774 23.355 9.97274 23.6667 9.36607C23.9881 8.75941 24.4215 8.29274 24.9669 7.96607C25.5123 7.63941 26.121 7.47607 26.793 7.47607C27.3677 7.47607 27.8692 7.58807 28.2978 7.81207C28.7361 8.03607 29.0721 8.33008 29.3058 8.69407V7.58807H31.804V15.4001H29.3058V14.2941C29.0623 14.6581 28.7214 14.9521 28.2832 15.1761C27.8546 15.4001 27.3531 15.5121 26.7784 15.5121C26.1162 15.5121 25.5123 15.3487 24.9669 15.0221C24.4215 14.6861 23.9881 14.2147 23.6667 13.6081C23.355 12.9921 23.1992 12.2827 23.1992 11.4801ZM29.3058 11.4941C29.3058 10.8967 29.1305 10.4254 28.7799 10.0801C28.439 9.73474 28.0202 9.56207 27.5235 9.56207C27.0268 9.56207 26.6031 9.73474 26.2525 10.0801C25.9116 10.4161 25.7412 10.8827 25.7412 11.4801C25.7412 12.0774 25.9116 12.5534 26.2525 12.9081C26.6031 13.2534 27.0268 13.4261 27.5235 13.4261C28.0202 13.4261 28.439 13.2534 28.7799 12.9081C29.1305 12.5627 29.3058 12.0914 29.3058 11.4941Z" fill="#07437B"/>
<path d="M36.1283 8.69404C36.362 8.33004 36.698 8.03604 37.1363 7.81204C37.5746 7.58804 38.0761 7.47604 38.641 7.47604C39.313 7.47604 39.9218 7.63937 40.4672 7.96604C41.0126 8.29271 41.4411 8.75937 41.7528 9.36604C42.0742 9.9727 42.2349 10.6774 42.2349 11.48C42.2349 12.2827 42.0742 12.992 41.7528 13.608C41.4411 14.2147 41.0126 14.686 40.4672 15.022C39.9218 15.3487 39.313 15.512 38.641 15.512C38.0664 15.512 37.5648 15.4047 37.1363 15.19C36.7078 14.966 36.3718 14.672 36.1283 14.308V15.4H33.6301V5.04004H36.1283V8.69404ZM39.6929 11.48C39.6929 10.8827 39.5176 10.416 39.167 10.08C38.8261 9.73471 38.4024 9.56204 37.896 9.56204C37.3993 9.56204 36.9756 9.73471 36.625 10.08C36.2841 10.4254 36.1137 10.8967 36.1137 11.494C36.1137 12.0914 36.2841 12.5627 36.625 12.908C36.9756 13.2534 37.3993 13.426 37.896 13.426C38.3927 13.426 38.8163 13.2534 39.167 12.908C39.5176 12.5534 39.6929 12.0774 39.6929 11.48Z" fill="#226357"/>
<path d="M47.2748 15.5121C46.4762 15.5121 45.7554 15.3487 45.1127 15.0221C44.4796 14.6954 43.978 14.2287 43.6079 13.6221C43.2476 13.0154 43.0674 12.3061 43.0674 11.4941C43.0674 10.6914 43.2524 9.98674 43.6225 9.38008C43.9926 8.76407 44.4991 8.29274 45.1419 7.96607C45.7847 7.63941 46.5054 7.47607 47.304 7.47607C48.1026 7.47607 48.8234 7.63941 49.4661 7.96607C50.1089 8.29274 50.6154 8.76407 50.9855 9.38008C51.3556 9.98674 51.5406 10.6914 51.5406 11.4941C51.5406 12.2967 51.3507 13.0061 50.9709 13.6221C50.6008 14.2287 50.0895 14.6954 49.4369 15.0221C48.7941 15.3487 48.0734 15.5121 47.2748 15.5121ZM47.2748 13.4401C47.752 13.4401 48.1562 13.2721 48.4873 12.9361C48.8282 12.6001 48.9987 12.1194 48.9987 11.4941C48.9987 10.8687 48.8331 10.3881 48.502 10.0521C48.1806 9.71607 47.7812 9.54807 47.304 9.54807C46.817 9.54807 46.4129 9.71607 46.0915 10.0521C45.7701 10.3787 45.6094 10.8594 45.6094 11.4941C45.6094 12.1194 45.7652 12.6001 46.0768 12.9361C46.3982 13.2721 46.7976 13.4401 47.2748 13.4401Z" fill="#FE6A15"/>
<path d="M56.6246 15.5121C55.826 15.5121 55.1053 15.3487 54.4625 15.0221C53.8294 14.6954 53.3279 14.2287 52.9578 13.6221C52.5974 13.0154 52.4172 12.3061 52.4172 11.4941C52.4172 10.6914 52.6023 9.98674 52.9724 9.38008C53.3425 8.76407 53.8489 8.29274 54.4917 7.96607C55.1345 7.63941 55.8552 7.47607 56.6539 7.47607C57.4525 7.47607 58.1732 7.63941 58.816 7.96607C59.4588 8.29274 59.9652 8.76407 60.3353 9.38008C60.7054 9.98674 60.8905 10.6914 60.8905 11.4941C60.8905 12.2967 60.7006 13.0061 60.3207 13.6221C59.9506 14.2287 59.4393 14.6954 58.7868 15.0221C58.144 15.3487 57.4233 15.5121 56.6246 15.5121ZM56.6246 13.4401C57.1019 13.4401 57.5061 13.2721 57.8372 12.9361C58.1781 12.6001 58.3485 12.1194 58.3485 11.4941C58.3485 10.8687 58.1829 10.3881 57.8518 10.0521C57.5304 9.71607 57.1311 9.54807 56.6539 9.54807C56.1669 9.54807 55.7627 9.71607 55.4413 10.0521C55.1199 10.3787 54.9592 10.8594 54.9592 11.4941C54.9592 12.1194 55.115 12.6001 55.4267 12.9361C55.7481 13.2721 56.1474 13.4401 56.6246 13.4401Z" fill="#FFD53C"/>
<path d="M67.8298 15.4L65.3463 12.124V15.4H62.8481V5.04004H65.3463V10.766L67.8152 7.58804H70.8977L67.5084 11.508L70.927 15.4H67.8298Z" fill="#07437B"/>
</svg>
