<svg width="24" height="24" viewBox="0 0 24 24" fill="none" xmlns="http://www.w3.org/2000/svg">
<path d="M12 16.8045C12.5304 16.8045 13.0391 17.007 13.4142 17.3674C13.7893 17.7278 14 18.2166 14 18.7263C14 19.236 13.7893 19.7248 13.4142 20.0852C13.0391 20.4456 12.5304 20.6481 12 20.6481C11.4696 20.6481 10.9609 20.4456 10.5858 20.0852C10.2107 19.7248 10 19.236 10 18.7263C10 18.2166 10.2107 17.7278 10.5858 17.3674C10.9609 17.007 11.4696 16.8045 12 16.8045ZM12 10.0783C12.5304 10.0783 13.0391 10.2808 13.4142 10.6412C13.7893 11.0016 14 11.4904 14 12.0001C14 12.5098 13.7893 12.9986 13.4142 13.359C13.0391 13.7194 12.5304 13.9219 12 13.9219C11.4696 13.9219 10.9609 13.7194 10.5858 13.359C10.2107 12.9986 10 12.5098 10 12.0001C10 11.4904 10.2107 11.0016 10.5858 10.6412C10.9609 10.2808 11.4696 10.0783 12 10.0783ZM12 3.35205C12.5304 3.35205 13.0391 3.55452 13.4142 3.91493C13.7893 4.27533 14 4.76415 14 5.27383C14 5.78352 13.7893 6.27234 13.4142 6.63274C13.0391 6.99314 12.5304 7.19562 12 7.19562C11.4696 7.19562 10.9609 6.99314 10.5858 6.63274C10.2107 6.27234 10 5.78352 10 5.27383C10 4.76415 10.2107 4.27533 10.5858 3.91493C10.9609 3.55452 11.4696 3.35205 12 3.35205Z" fill="black"/>
</svg>
