<svg width="24" height="24" viewBox="0 0 24 24" fill="none" xmlns="http://www.w3.org/2000/svg">
<path d="M8.50005 12.2999H9.90005V10.2499H8.50005V12.2999ZM3.55005 17.4999H2.90005C2.78339 17.4999 2.67939 17.4666 2.58805 17.3999C2.49672 17.3332 2.43405 17.2416 2.40005 17.1249C2.31672 16.9416 2.33339 16.7706 2.45005 16.6119C2.56672 16.4532 2.72505 16.3742 2.92505 16.3749H3.07505C3.15839 16.3749 3.23772 16.3456 3.31305 16.2869C3.38839 16.2282 3.42572 16.1576 3.42505 16.0749V13.5499L2.67505 13.7999C2.52505 13.8499 2.37939 13.8372 2.23805 13.7619C2.09672 13.6866 2.00905 13.5659 1.97505 13.3999C1.94172 13.2499 1.96272 13.1082 2.03805 12.9749C2.11339 12.8416 2.22572 12.7582 2.37505 12.7249L3.42505 12.3999V10.1499H2.55005C2.40005 10.1499 2.27505 10.0999 2.17505 9.9999C2.07505 9.8999 2.02505 9.7749 2.02505 9.6249C2.02505 9.4749 2.07505 9.3499 2.17505 9.2499C2.27505 9.1499 2.40005 9.0999 2.55005 9.0999H3.42505V7.3499C3.42505 7.1999 3.47939 7.0709 3.58805 6.9629C3.69672 6.8549 3.82572 6.80057 3.97505 6.7999C4.12439 6.79924 4.25372 6.85357 4.36305 6.9629C4.47239 7.07224 4.52639 7.20124 4.52505 7.3499V9.0999H5.12505C5.27505 9.0999 5.40005 9.1499 5.50005 9.2499C5.60005 9.3499 5.65005 9.4749 5.65005 9.6249C5.65005 9.7749 5.60005 9.8999 5.50005 9.9999C5.40005 10.0999 5.27505 10.1499 5.12505 10.1499H4.50005V12.0749L4.92505 11.9499C5.07505 11.8999 5.21672 11.9166 5.35005 11.9999C5.48339 12.0832 5.56672 12.2082 5.60005 12.3749C5.61672 12.5082 5.59172 12.6292 5.52505 12.7379C5.45839 12.8466 5.36672 12.9172 5.25005 12.9499L4.50005 13.1999V16.3249C4.50005 16.6249 4.41239 16.8959 4.23705 17.1379C4.06172 17.3799 3.83272 17.5006 3.55005 17.4999ZM8.40005 13.3999C8.36672 14.1666 8.18772 14.8832 7.86305 15.5499C7.53839 16.2166 7.08405 16.7916 6.50005 17.2749C6.36672 17.3916 6.21672 17.4499 6.05005 17.4499C5.88339 17.4499 5.74172 17.3832 5.62505 17.2499C5.52505 17.1332 5.49172 17.0042 5.52505 16.8629C5.55839 16.7216 5.63339 16.6006 5.75005 16.4999C6.21672 16.1166 6.58772 15.6582 6.86305 15.1249C7.13839 14.5916 7.28405 14.0166 7.30005 13.3999H6.15005C6.00005 13.3999 5.87072 13.3416 5.76205 13.2249C5.65339 13.1082 5.59939 12.9749 5.60005 12.8249C5.60072 12.6749 5.65905 12.5459 5.77505 12.4379C5.89105 12.3299 6.02439 12.2756 6.17505 12.2749H7.40005V10.2499H6.55005C6.41672 10.2499 6.30005 10.1959 6.20005 10.0879C6.10005 9.9799 6.05005 9.8589 6.05005 9.7249C6.05005 9.5909 6.10005 9.47424 6.20005 9.3749C6.30005 9.27557 6.41672 9.22557 6.55005 9.2249H11.8251C11.9751 9.2249 12.1044 9.27924 12.2131 9.3879C12.3217 9.49657 12.3757 9.62557 12.3751 9.7749C12.3744 9.92424 12.3204 10.0536 12.2131 10.1629C12.1057 10.2722 11.9764 10.3262 11.8251 10.3249H10.9501V12.3999H12.1751C12.3084 12.3999 12.4294 12.4542 12.5381 12.5629C12.6467 12.6716 12.6924 12.7922 12.6751 12.9249C12.6577 13.0576 12.6037 13.1702 12.5131 13.2629C12.4224 13.3556 12.3097 13.4012 12.1751 13.3999H10.9501V16.9749C10.9501 17.1249 10.8961 17.2542 10.7881 17.3629C10.6801 17.4716 10.5507 17.5256 10.4001 17.5249C10.2494 17.5242 10.1204 17.4702 10.0131 17.3629C9.90572 17.2556 9.85139 17.1262 9.85005 16.9749V13.3999H8.40005ZM10.3251 9.3499C10.1917 9.31657 10.0917 9.24157 10.0251 9.1249C9.95839 9.00824 9.95839 8.88324 10.0251 8.7499C10.1251 8.51657 10.2294 8.28324 10.3381 8.0499C10.4467 7.81657 10.5424 7.58324 10.6251 7.3499C10.6917 7.1999 10.8001 7.09157 10.9501 7.0249C11.1001 6.95824 11.2501 6.9499 11.4001 6.9999C11.5501 7.0499 11.6584 7.1499 11.7251 7.2999C11.7917 7.4499 11.7834 7.5999 11.7001 7.7499C11.6001 7.96657 11.5001 8.1749 11.4001 8.3749C11.3001 8.5749 11.1917 8.78324 11.0751 8.9999C11.0084 9.13324 10.9001 9.23324 10.7501 9.2999C10.6001 9.36657 10.4584 9.38324 10.3251 9.3499ZM7.57505 8.9249C7.47505 8.70824 7.37505 8.4999 7.27505 8.2999C7.17505 8.0999 7.06672 7.8999 6.95005 7.6999C6.86672 7.56657 6.84572 7.43724 6.88705 7.3119C6.92839 7.18657 7.01605 7.0909 7.15005 7.0249C7.28405 6.9589 7.43005 6.95057 7.58805 6.9999C7.74605 7.04924 7.86672 7.1409 7.95005 7.2749C8.06672 7.4749 8.17505 7.6749 8.27505 7.8749C8.37505 8.0749 8.47505 8.28324 8.57505 8.4999C8.64172 8.63324 8.64605 8.76657 8.58805 8.8999C8.53005 9.03324 8.43405 9.13324 8.30005 9.1999C8.16605 9.26657 8.02839 9.2709 7.88705 9.2129C7.74572 9.1549 7.64172 9.0589 7.57505 8.9249ZM17.5501 15.6499C18.0167 15.6499 18.4711 15.5416 18.9131 15.3249C19.3551 15.1082 19.7591 14.7999 20.1251 14.3999V11.7499C19.7417 11.7999 19.3877 11.8582 19.0631 11.9249C18.7384 11.9916 18.4341 12.0666 18.1501 12.1499C17.4001 12.3832 16.8377 12.6749 16.4631 13.0249C16.0884 13.3749 15.9007 13.7832 15.9001 14.2499C15.9001 14.6832 16.0501 15.0249 16.3501 15.2749C16.6501 15.5249 17.0501 15.6499 17.5501 15.6499ZM16.9751 17.3499C16.0251 17.3499 15.2751 17.0792 14.7251 16.5379C14.1751 15.9966 13.9001 15.2589 13.9001 14.3249C13.9001 13.4582 14.1751 12.7499 14.7251 12.1999C15.2751 11.6499 16.1584 11.2082 17.3751 10.8749C17.7584 10.7749 18.1794 10.6832 18.6381 10.5999C19.0967 10.5166 19.5924 10.4416 20.1251 10.3749C20.0917 9.59157 19.9084 9.02057 19.5751 8.6619C19.2417 8.30324 18.7251 8.12424 18.0251 8.1249C17.6751 8.1249 17.3334 8.1749 17.0001 8.2749C16.6667 8.3749 16.2751 8.54157 15.8251 8.7749C15.6251 8.89157 15.4167 8.9249 15.2001 8.8749C14.9834 8.8249 14.8167 8.6999 14.7001 8.4999C14.5834 8.2999 14.5584 8.08724 14.6251 7.8619C14.6917 7.63657 14.8251 7.4659 15.0251 7.3499C15.5417 7.06657 16.0961 6.83757 16.6881 6.6629C17.2801 6.48824 17.8841 6.40057 18.5001 6.3999C19.6834 6.3999 20.5834 6.76657 21.2001 7.4999C21.8167 8.23324 22.1251 9.2999 22.1251 10.6999V16.2999C22.1251 16.5332 22.0457 16.7292 21.8871 16.8879C21.7284 17.0466 21.5327 17.1256 21.3001 17.1249H21.1751C20.9584 17.1249 20.7751 17.0539 20.6251 16.9119C20.4751 16.7699 20.3834 16.5992 20.3501 16.3999L20.3001 15.9999C19.8334 16.4166 19.3211 16.7459 18.7631 16.9879C18.2051 17.2299 17.6091 17.3506 16.9751 17.3499Z" fill="black"/>
</svg>
