<svg width="24" height="24" viewBox="0 0 24 24" fill="none" xmlns="http://www.w3.org/2000/svg">
<path fill-rule="evenodd" clip-rule="evenodd" d="M10.925 21.2751C11.3806 21.2751 11.75 20.9057 11.75 20.4501C11.75 19.9945 11.3806 19.6251 10.925 19.6251H4.875C3.5081 19.6251 2.4 18.517 2.4 17.1501L2.4 5.6001C2.4 4.23319 3.5081 3.1251 4.875 3.1251L15.875 3.1251C17.2419 3.1251 18.35 4.23319 18.35 5.6001V10.5501C18.35 11.0057 18.7194 11.3751 19.175 11.3751C19.6306 11.3751 20 11.0057 20 10.5501V5.6001C20 3.32192 18.1532 1.4751 15.875 1.4751H4.875C2.59683 1.4751 0.75 3.32192 0.75 5.6001V17.1501C0.75 19.4283 2.59683 21.2751 4.875 21.2751H10.925ZM4 7C4 5.89543 4.89543 5 6 5H15C16.1046 5 17 5.89543 17 7V16C17 17.1046 16.1046 18 15 18H6C4.89543 18 4 17.1046 4 16V7ZM10.5 6.18182C10.7539 6.18182 10.9596 6.38759 10.9596 6.64141V8.02039H14.1193C14.4049 8.02039 14.6364 8.22616 14.6364 8.47999C14.6364 8.73382 14.4049 8.93959 14.1193 8.93959L6.88068 8.93959C6.59513 8.93959 6.36364 8.73382 6.36364 8.47999C6.36364 8.22616 6.59513 8.02039 6.88068 8.02039H10.0404V6.64141C10.0404 6.38759 10.2462 6.18182 10.5 6.18182ZM12.9435 9.42264C13.1843 9.5029 13.3144 9.76318 13.2341 10.004C12.7911 11.3332 12.0499 12.1656 11.1628 13.0621C12.1558 13.9062 13.3263 14.3428 13.8285 14.4683C14.0747 14.5299 14.2245 14.7794 14.1629 15.0257C14.1013 15.2719 13.8518 15.4216 13.6056 15.3601C12.9991 15.2085 11.6461 14.7045 10.5 13.7043C9.35389 14.7045 8.00086 15.2085 7.39444 15.3601C7.14819 15.4216 6.89866 15.2719 6.83709 15.0257C6.77553 14.7794 6.92525 14.5299 7.1715 14.4683C7.67373 14.3428 8.84421 13.9062 9.83721 13.0621C8.95005 12.1656 8.20892 11.3332 7.76587 10.004C7.6856 9.76318 7.81574 9.5029 8.05654 9.42264C8.29734 9.34237 8.55762 9.47251 8.63789 9.71331C9.01384 10.8412 9.6276 11.5422 10.5 12.4247C11.3724 11.5422 11.9862 10.8412 12.3621 9.71331C12.4424 9.47251 12.7027 9.34237 12.9435 9.42264Z" fill="white"/>
<path fill-rule="evenodd" clip-rule="evenodd" d="M18.875 22.625C19.4659 22.625 20.0511 22.5086 20.5971 22.2825C21.143 22.0563 21.6391 21.7248 22.057 21.307C22.4748 20.8891 22.8063 20.393 23.0325 19.8471C23.2586 19.3011 23.375 18.7159 23.375 18.125C23.375 17.5341 23.2586 16.9489 23.0325 16.4029C22.8063 15.857 22.4748 15.3609 22.057 14.943C21.6391 14.5252 21.143 14.1937 20.5971 13.9675C20.0511 13.7414 19.4659 13.625 18.875 13.625C17.6815 13.625 16.5369 14.0991 15.693 14.943C14.8491 15.7869 14.375 16.9315 14.375 18.125C14.375 19.3185 14.8491 20.4631 15.693 21.307C16.5369 22.1509 17.6815 22.625 18.875 22.625ZM18.875 15.2671C18.9835 15.2671 19.0876 15.3102 19.1643 15.3869C19.241 15.4636 19.2841 15.5677 19.2841 15.6762V17.7159H21.3238C21.4323 17.7159 21.5364 17.759 21.6131 17.8357C21.6898 17.9124 21.7329 18.0165 21.7329 18.125C21.7329 18.2335 21.6898 18.3376 21.6131 18.4143C21.5364 18.491 21.4323 18.5341 21.3238 18.5341H19.2841V20.5738C19.2841 20.6823 19.241 20.7864 19.1643 20.8631C19.0876 20.9398 18.9835 20.9829 18.875 20.9829C18.7665 20.9829 18.6624 20.9398 18.5857 20.8631C18.509 20.7864 18.4659 20.6823 18.4659 20.5738V18.5341H16.4262C16.3177 18.5341 16.2136 18.491 16.1369 18.4143C16.0602 18.3376 16.0171 18.2335 16.0171 18.125C16.0171 18.0165 16.0602 17.9124 16.1369 17.8357C16.2136 17.759 16.3177 17.7159 16.4262 17.7159H18.4659V15.6762C18.4659 15.5677 18.509 15.4636 18.5857 15.3869C18.6624 15.3102 18.7665 15.2671 18.875 15.2671Z" fill="#226357"/>
</svg>
