<svg width="24" height="24" viewBox="0 0 24 24" fill="none" xmlns="http://www.w3.org/2000/svg">
<path fill-rule="evenodd" clip-rule="evenodd" d="M11.625 19.625C11.625 20.0392 11.2892 20.375 10.875 20.375H5.375C3.30393 20.375 1.625 18.6961 1.625 16.625L1.625 6.125C1.625 4.05393 3.30393 2.375 5.375 2.375L15.375 2.375C17.4461 2.375 19.125 4.05393 19.125 6.125V10.625C19.125 11.0392 18.7892 11.375 18.375 11.375C17.9608 11.375 17.625 11.0392 17.625 10.625V6.125C17.625 4.88236 16.6176 3.875 15.375 3.875L5.375 3.875C4.13236 3.875 3.125 4.88236 3.125 6.125L3.125 16.625C3.125 17.8676 4.13236 18.875 5.375 18.875H10.875C11.2892 18.875 11.625 19.2108 11.625 19.625Z" fill="black"/>
<rect x="5" y="6" width="11" height="11" rx="2" fill="black"/>
<path fill-rule="evenodd" clip-rule="evenodd" d="M10.4161 7C10.7214 7 10.9688 7.25583 10.9688 7.5714V8.71421C10.9688 9.02979 10.7214 9.28561 10.4161 9.28561C10.1109 9.28561 9.86351 9.02979 9.86351 8.71421V7.5714C9.86351 7.25583 10.1109 7 10.4161 7Z" fill="white"/>
<path fill-rule="evenodd" clip-rule="evenodd" d="M7 9.09504C7 8.77946 7.24742 8.52364 7.55263 8.52364H13.4474C13.7526 8.52364 14 8.77946 14 9.09504C14 9.41062 13.7526 9.66644 13.4474 9.66644H7.55263C7.24742 9.66644 7 9.41062 7 9.09504Z" fill="white"/>
<path fill-rule="evenodd" clip-rule="evenodd" d="M8.74185 10.1291C8.48013 10.2915 8.39527 10.6425 8.5523 10.9131C8.94868 11.5962 9.49487 12.2928 10.1091 12.9278C10.7437 13.584 12.0458 14.5333 12.8317 14.9395C13.1047 15.0807 13.4366 14.9663 13.5731 14.684C13.7096 14.4018 13.5989 14.0585 13.326 13.9174C12.6381 13.5618 11.4349 12.6826 10.8906 12.1198C10.3259 11.5358 9.84051 10.9118 9.50005 10.3251C9.34302 10.0545 9.00356 9.96678 8.74185 10.1291Z" fill="white"/>
<path fill-rule="evenodd" clip-rule="evenodd" d="M12.6262 10.1291C12.888 10.2915 12.9728 10.6425 12.8158 10.9131C12.4194 11.5962 11.8732 12.2928 11.259 12.9278C10.6244 13.584 9.32226 14.5333 8.53643 14.9395C8.26345 15.0807 7.93149 14.9663 7.795 14.684C7.65851 14.4018 7.76916 14.0585 8.04214 13.9174C8.73001 13.5618 9.93315 12.6826 10.4775 12.1198C11.0422 11.5358 11.5276 10.9118 11.868 10.3251C12.0251 10.0545 12.3645 9.96678 12.6262 10.1291Z" fill="white"/>
<path fill-rule="evenodd" clip-rule="evenodd" d="M17.875 21.625C18.4659 21.625 19.0511 21.5086 19.5971 21.2825C20.143 21.0563 20.6391 20.7248 21.057 20.307C21.4748 19.8891 21.8063 19.393 22.0325 18.8471C22.2586 18.3011 22.375 17.7159 22.375 17.125C22.375 16.5341 22.2586 15.9489 22.0325 15.4029C21.8063 14.857 21.4748 14.3609 21.057 13.943C20.6391 13.5252 20.143 13.1937 19.5971 12.9675C19.0511 12.7414 18.4659 12.625 17.875 12.625C16.6815 12.625 15.5369 13.0991 14.693 13.943C13.8491 14.7869 13.375 15.9315 13.375 17.125C13.375 18.3185 13.8491 19.4631 14.693 20.307C15.5369 21.1509 16.6815 21.625 17.875 21.625ZM17.875 14.2671C17.9835 14.2671 18.0876 14.3102 18.1643 14.3869C18.241 14.4636 18.2841 14.5677 18.2841 14.6762V16.7159H20.3238C20.4323 16.7159 20.5364 16.759 20.6131 16.8357C20.6898 16.9124 20.7329 17.0165 20.7329 17.125C20.7329 17.2335 20.6898 17.3376 20.6131 17.4143C20.5364 17.491 20.4323 17.5341 20.3238 17.5341H18.2841V19.5738C18.2841 19.6823 18.241 19.7864 18.1643 19.8631C18.0876 19.9398 17.9835 19.9829 17.875 19.9829C17.7665 19.9829 17.6624 19.9398 17.5857 19.8631C17.509 19.7864 17.4659 19.6823 17.4659 19.5738V17.5341H15.4262C15.3177 17.5341 15.2136 17.491 15.1369 17.4143C15.0602 17.3376 15.0171 17.2335 15.0171 17.125C15.0171 17.0165 15.0602 16.9124 15.1369 16.8357C15.2136 16.759 15.3177 16.7159 15.4262 16.7159H17.4659V14.6762C17.4659 14.5677 17.509 14.4636 17.5857 14.3869C17.6624 14.3102 17.7665 14.2671 17.875 14.2671Z" fill="#226357"/>
</svg>
