<svg width="24" height="24" viewBox="0 0 24 24" fill="none" xmlns="http://www.w3.org/2000/svg">
<path fill-rule="evenodd" clip-rule="evenodd" d="M5.26829 10.8C5.96013 10.8 6.6452 10.6603 7.28438 10.389C7.92356 10.1176 8.50433 9.71981 8.99354 9.21838C9.48275 8.71694 9.8708 8.12165 10.1356 7.46649C10.4003 6.81133 10.5366 6.10914 10.5366 5.4C10.5366 4.69086 10.4003 3.98867 10.1356 3.33351C9.8708 2.67835 9.48275 2.08306 8.99354 1.58162C8.50433 1.08019 7.92356 0.682426 7.28438 0.411051C6.6452 0.139675 5.96013 -1.0567e-08 5.26829 0C3.87105 2.1341e-08 2.53104 0.568927 1.54305 1.58162C0.555051 2.59432 0 3.96783 0 5.4C0 6.83217 0.555051 8.20568 1.54305 9.21838C2.53104 10.2311 3.87105 10.8 5.26829 10.8ZM5.26829 1.97051C5.39531 1.97051 5.51713 2.02223 5.60695 2.11429C5.69677 2.20636 5.74723 2.33122 5.74723 2.46142V4.90909H8.1352C8.26222 4.90909 8.38404 4.96081 8.47386 5.05288C8.56368 5.14494 8.61414 5.2698 8.61414 5.4C8.61414 5.5302 8.56368 5.65506 8.47386 5.74713C8.38404 5.83919 8.26222 5.89091 8.1352 5.89091H5.74723V8.33858C5.74723 8.46878 5.69677 8.59364 5.60695 8.68571C5.51713 8.77777 5.39531 8.82949 5.26829 8.82949C5.14127 8.82949 5.01945 8.77777 4.92963 8.68571C4.83982 8.59364 4.78936 8.46878 4.78936 8.33858V5.89091H2.40138C2.27436 5.89091 2.15254 5.83919 2.06273 5.74713C1.97291 5.65506 1.92245 5.5302 1.92245 5.4C1.92245 5.2698 1.97291 5.14494 2.06273 5.05288C2.15254 4.96081 2.27436 4.90909 2.40138 4.90909H4.78936V2.46142C4.78936 2.33122 4.83982 2.20636 4.92963 2.11429C5.01945 2.02223 5.14127 1.97051 5.26829 1.97051Z" fill="#226357"/>
<path fill-rule="evenodd" clip-rule="evenodd" d="M12.2927 3.2999C12.2927 2.80285 12.6858 2.3999 13.1707 2.3999H19.6098C22.0344 2.3999 24 4.41462 24 6.8999V19.4999C24 21.9852 22.0344 23.9999 19.6098 23.9999H7.90245C5.47779 23.9999 3.51221 21.9852 3.51221 19.4999V14.0999C3.51221 13.6028 3.90532 13.1999 4.39026 13.1999C4.87519 13.1999 5.2683 13.6028 5.2683 14.0999V19.4999C5.2683 20.9911 6.44765 22.1999 7.90245 22.1999H19.6098C21.0646 22.1999 22.2439 20.9911 22.2439 19.4999V6.8999C22.2439 5.40873 21.0646 4.1999 19.6098 4.1999H13.1707C12.6858 4.1999 12.2927 3.79696 12.2927 3.2999Z" fill="white"/>
<path fill-rule="evenodd" clip-rule="evenodd" d="M20.7805 18.5999C19.3257 18.5999 18.1464 19.8087 18.1464 21.2999V22.4999C18.1464 22.997 17.7532 23.3999 17.2683 23.3999C16.7834 23.3999 16.3903 22.997 16.3903 22.4999V21.2999C16.3903 18.8146 18.3558 16.7999 20.7805 16.7999H22.5366C23.0215 16.7999 23.4146 17.2028 23.4146 17.6999C23.4146 18.197 23.0215 18.5999 22.5366 18.5999H20.7805Z" fill="white"/>
<path fill-rule="evenodd" clip-rule="evenodd" d="M11.122 9.8999C11.122 9.40285 11.5151 8.9999 12 8.9999H17.8537C18.3386 8.9999 18.7317 9.40285 18.7317 9.8999C18.7317 10.397 18.3386 10.7999 17.8537 10.7999H12C11.5151 10.7999 11.122 10.397 11.122 9.8999Z" fill="white"/>
<path fill-rule="evenodd" clip-rule="evenodd" d="M9.36587 14.6999C9.36587 14.2028 9.75898 13.7999 10.2439 13.7999H16.0976C16.5825 13.7999 16.9756 14.2028 16.9756 14.6999C16.9756 15.197 16.5825 15.5999 16.0976 15.5999H10.2439C9.75898 15.5999 9.36587 15.197 9.36587 14.6999Z" fill="white"/>
</svg>
