<svg width="24" height="24" viewBox="0 0 24 24" fill="none" xmlns="http://www.w3.org/2000/svg">
<path d="M19.7143 10.7143H19.0714V3H17.7857V10.7143H17.1429C16.8019 10.7143 16.4748 10.8497 16.2337 11.0909C15.9926 11.332 15.8571 11.659 15.8571 12V13.2857C15.8571 13.6267 15.9926 13.9537 16.2337 14.1949C16.4748 14.436 16.8019 14.5714 17.1429 14.5714H17.7857V21H19.0714V14.5714H19.7143C20.0551 14.5709 20.3819 14.4353 20.6229 14.1943C20.8639 13.9533 20.9995 13.6265 21 13.2857V12C21 11.659 20.8645 11.332 20.6234 11.0909C20.3823 10.8497 20.0553 10.7143 19.7143 10.7143ZM19.7143 13.2857H17.1429V12H19.7143V13.2857ZM13.2857 5.57143H12.6429V3H11.3571V5.57143H10.7143C10.3733 5.57143 10.0463 5.70689 9.80515 5.94801C9.56403 6.18912 9.42857 6.51615 9.42857 6.85714V8.14286C9.42857 8.48385 9.56403 8.81088 9.80515 9.05199C10.0463 9.29311 10.3733 9.42857 10.7143 9.42857H11.3571V21H12.6429V9.42857H13.2857C13.6267 9.42857 13.9537 9.29311 14.1949 9.05199C14.436 8.81088 14.5714 8.48385 14.5714 8.14286V6.85714C14.5714 6.51615 14.436 6.18912 14.1949 5.94801C13.9537 5.70689 13.6267 5.57143 13.2857 5.57143ZM13.2857 8.14286H10.7143V6.85714H13.2857V8.14286ZM6.85714 14.5714H6.21429V3H4.92857V14.5714H4.28571C3.94472 14.5714 3.6177 14.7069 3.37658 14.948C3.13546 15.1891 3 15.5162 3 15.8571V17.1429C3 17.4838 3.13546 17.8109 3.37658 18.052C3.6177 18.2931 3.94472 18.4286 4.28571 18.4286H4.92857V21H6.21429V18.4286H6.85714C7.19814 18.4286 7.52516 18.2931 7.76628 18.052C8.0074 17.8109 8.14286 17.4838 8.14286 17.1429V15.8571C8.14286 15.5162 8.0074 15.1891 7.76628 14.948C7.52516 14.7069 7.19814 14.5714 6.85714 14.5714ZM6.85714 17.1429H4.28571V15.8571H6.85714V17.1429Z" fill="black"/>
</svg>
