<svg width="24" height="26" viewBox="0 0 24 26" fill="none" xmlns="http://www.w3.org/2000/svg">
<path fill-rule="evenodd" clip-rule="evenodd" d="M3 5C3 4.44772 3.44772 4 4 4H8.5C9.05228 4 9.5 4.44772 9.5 5C9.5 5.55228 9.05228 6 8.5 6H6.41421L10.2071 9.79289C10.5976 10.1834 10.5976 10.8166 10.2071 11.2071C9.81658 11.5976 9.18342 11.5976 8.79289 11.2071L5 7.41421V9.5C5 10.0523 4.55228 10.5 4 10.5C3.44772 10.5 3 10.0523 3 9.5V5ZM15.5 4H20C20.5523 4 21 4.44772 21 5V9.5C21 10.0523 20.5523 10.5 20 10.5C19.4477 10.5 19 10.0523 19 9.5V7.41421L15.2071 11.2071C14.8166 11.5976 14.1834 11.5976 13.7929 11.2071C13.4024 10.8166 13.4024 10.1834 13.7929 9.79289L17.5858 6H15.5C14.9477 6 14.5 5.55228 14.5 5C14.5 4.44772 14.9477 4 15.5 4ZM10.2071 14.7929C10.5976 15.1834 10.5976 15.8166 10.2071 16.2071L6.41421 20H8.5C9.05228 20 9.5 20.4477 9.5 21C9.5 21.5523 9.05228 22 8.5 22H4C3.44772 22 3 21.5523 3 21V16.5C3 15.9477 3.44772 15.5 4 15.5C4.55228 15.5 5 15.9477 5 16.5V18.5858L8.79289 14.7929C9.18342 14.4024 9.81658 14.4024 10.2071 14.7929ZM13.7929 14.7929C14.1834 14.4024 14.8166 14.4024 15.2071 14.7929L19 18.5858V16.5C19 15.9477 19.4477 15.5 20 15.5C20.5523 15.5 21 15.9477 21 16.5V21C21 21.5523 20.5523 22 20 22H15.5C14.9477 22 14.5 21.5523 14.5 21C14.5 20.4477 14.9477 20 15.5 20H17.5858L13.7929 16.2071C13.4024 15.8166 13.4024 15.1834 13.7929 14.7929Z" fill="black"/>
</svg>
