<svg width="25" height="24" viewBox="0 0 25 24" fill="none" xmlns="http://www.w3.org/2000/svg">
<path d="M17.9308 5.77161L13.6866 4.59614C12.0898 4.15391 10.4369 5.08983 9.99468 6.68657L7.80273 14.6009C7.3605 16.1977 8.29642 17.8506 9.89316 18.2928L14.1374 19.4683C15.7341 19.9105 17.3871 18.9746 17.8293 17.3779L20.0212 9.46351C20.4635 7.86676 19.5275 6.21385 17.9308 5.77161Z" fill="white" stroke="#665518" stroke-width="2"/>
<path d="M12.3179 3.5H6.94751C5.29066 3.5 3.94751 4.84315 3.94751 6.5V16.0926C3.94751 17.7495 5.29066 19.0926 6.94751 19.0926H12.3179C13.9748 19.0926 15.3179 17.7495 15.3179 16.0926V6.5C15.3179 4.84315 13.9748 3.5 12.3179 3.5Z" fill="#FFD53C" stroke="#665518" stroke-width="2"/>
</svg>
