<svg width="24" height="24" viewBox="0 0 24 24" fill="none" xmlns="http://www.w3.org/2000/svg">
<path fill-rule="evenodd" clip-rule="evenodd" d="M5.5 3.5C4.39543 3.5 3.5 4.39543 3.5 5.5V18.5C3.5 19.6046 4.39543 20.5 5.5 20.5H18.5C19.6046 20.5 20.5 19.6046 20.5 18.5V5.5C20.5 4.39543 19.6046 3.5 18.5 3.5H5.5ZM12.6009 5.64655C12.6009 5.31462 12.3318 5.04554 11.9999 5.04554C11.6679 5.04554 11.3989 5.31462 11.3989 5.64655L11.3989 7.44989H7.2669C6.89348 7.44989 6.59076 7.71897 6.59076 8.0509C6.59076 8.38283 6.89348 8.65191 7.2669 8.65191H16.7328C17.1062 8.65191 17.4089 8.38283 17.4089 8.0509C17.4089 7.71897 17.1062 7.44989 16.7328 7.44989H12.6009V5.64655ZM15.5751 10.0437C15.68 9.72878 15.5099 9.38841 15.195 9.28345C14.8801 9.17848 14.5397 9.34866 14.4347 9.66356C13.9431 11.1384 13.1405 12.0552 11.9997 13.2092C10.8589 12.0552 10.0563 11.1384 9.56467 9.66356C9.45971 9.34866 9.11934 9.17848 8.80445 9.28345C8.48955 9.38841 8.31937 9.72878 8.42434 10.0437C9.00371 11.7818 9.97287 12.8703 11.133 14.0427C9.83445 15.1466 8.3038 15.7175 7.64703 15.8817C7.32501 15.9622 7.12922 16.2885 7.20973 16.6105C7.29023 16.9325 7.61654 17.1283 7.93856 17.0478C8.73158 16.8495 10.5009 16.1905 11.9997 14.8825C13.4985 16.1905 15.2678 16.8495 16.0609 17.0478C16.3829 17.1283 16.7092 16.9325 16.7897 16.6105C16.8702 16.2885 16.6744 15.9622 16.3524 15.8817C15.6956 15.7175 14.165 15.1466 12.8664 14.0427C14.0265 12.8703 14.9957 11.7818 15.5751 10.0437Z" fill="black"/>
</svg>
