<svg width="24" height="24" viewBox="0 0 24 24" fill="none" xmlns="http://www.w3.org/2000/svg">
<path fill-rule="evenodd" clip-rule="evenodd" d="M15.2727 9.54543C15.2727 10.4134 14.9279 11.2458 14.3142 11.8596C13.7004 12.4734 12.868 12.8182 12 12.8182C11.132 12.8182 10.2996 12.4734 9.68585 11.8596C9.0721 11.2458 8.72729 10.4134 8.72729 9.54543C8.72729 8.67745 9.0721 7.84502 9.68585 7.23126C10.2996 6.61751 11.132 6.27271 12 6.27271C12.868 6.27271 13.7004 6.61751 14.3142 7.23126C14.9279 7.84502 15.2727 8.67745 15.2727 9.54543ZM13.6364 9.54543C13.6364 9.97942 13.464 10.3956 13.1571 10.7025C12.8502 11.0094 12.434 11.1818 12 11.1818C11.566 11.1818 11.1498 11.0094 10.8429 10.7025C10.5361 10.3956 10.3637 9.97942 10.3637 9.54543C10.3637 9.11144 10.5361 8.69523 10.8429 8.38835C11.1498 8.08147 11.566 7.90907 12 7.90907C12.434 7.90907 12.8502 8.08147 13.1571 8.38835C13.464 8.69523 13.6364 9.11144 13.6364 9.54543Z" fill="black"/>
<path fill-rule="evenodd" clip-rule="evenodd" d="M12 3C7.02955 3 3 7.02955 3 12C3 16.9705 7.02955 21 12 21C16.9705 21 21 16.9705 21 12C21 7.02955 16.9705 3 12 3ZM4.63636 12C4.63636 13.71 5.21973 15.2842 6.19745 16.5344C6.88427 15.6328 7.77013 14.9022 8.78589 14.3995C9.80165 13.8968 10.9198 13.6356 12.0532 13.6364C13.1719 13.6351 14.2762 13.8893 15.2818 14.3796C16.2874 14.8699 17.1678 15.5834 17.8557 16.4656C18.5646 15.5359 19.042 14.4506 19.2482 13.2998C19.4544 12.1489 19.3836 10.9654 19.0417 9.84735C18.6997 8.72926 18.0965 7.70868 17.2818 6.87003C16.4671 6.03139 15.4644 5.39879 14.3567 5.0246C13.249 4.6504 12.0681 4.54536 10.9117 4.71816C9.75534 4.89096 8.65674 5.33664 7.70681 6.01832C6.75688 6.69999 5.98294 7.59808 5.44901 8.63825C4.91508 9.67843 4.63651 10.8308 4.63636 12ZM12 19.3636C10.3096 19.3664 8.67012 18.7848 7.35927 17.7175C7.88684 16.962 8.58916 16.3451 9.40642 15.9195C10.2237 15.4938 11.1317 15.2719 12.0532 15.2727C12.9631 15.2719 13.8602 15.4883 14.6697 15.9038C15.4793 16.3193 16.178 16.922 16.7078 17.6618C15.3868 18.7639 13.7203 19.3663 12 19.3636Z" fill="black"/>
</svg>
