<svg width="48" height="48" viewBox="0 0 48 48" fill="none" xmlns="http://www.w3.org/2000/svg">
<path fill-rule="evenodd" clip-rule="evenodd" d="M10.5366 21.6C11.9203 21.6 13.2904 21.3207 14.5688 20.7779C15.8471 20.2351 17.0087 19.4396 17.9871 18.4368C18.9655 17.4339 19.7416 16.2433 20.2711 14.933C20.8006 13.6227 21.0732 12.2183 21.0732 10.8C21.0732 9.38172 20.8006 7.97734 20.2711 6.66702C19.7416 5.3567 18.9655 4.16612 17.9871 3.16325C17.0087 2.16037 15.8471 1.36485 14.5688 0.822101C13.2904 0.27935 11.9203 -2.1134e-08 10.5366 0C7.74211 4.2682e-08 5.06209 1.13785 3.08609 3.16325C1.1101 5.18864 0 7.93566 0 10.8C0 13.6643 1.1101 16.4114 3.08609 18.4368C5.06209 20.4621 7.74211 21.6 10.5366 21.6ZM10.5366 3.94102C10.7906 3.94102 11.0343 4.04446 11.2139 4.22859C11.3935 4.41271 11.4945 4.66244 11.4945 4.92284V9.81818H16.2704C16.5244 9.81818 16.7681 9.92162 16.9477 10.1058C17.1274 10.2899 17.2283 10.5396 17.2283 10.8C17.2283 11.0604 17.1274 11.3101 16.9477 11.4943C16.7681 11.6784 16.5244 11.7818 16.2704 11.7818H11.4945V16.6772C11.4945 16.9376 11.3935 17.1873 11.2139 17.3714C11.0343 17.5555 10.7906 17.659 10.5366 17.659C10.2825 17.659 10.0389 17.5555 9.85927 17.3714C9.67963 17.1873 9.57871 16.9376 9.57871 16.6772V11.7818H4.80277C4.54872 11.7818 4.30509 11.6784 4.12545 11.4943C3.94581 11.3101 3.8449 11.0604 3.8449 10.8C3.8449 10.5396 3.94581 10.2899 4.12545 10.1058C4.30509 9.92162 4.54872 9.81818 4.80277 9.81818H9.57871V4.92284C9.57871 4.66244 9.67963 4.41271 9.85927 4.22859C10.0389 4.04446 10.2825 3.94102 10.5366 3.94102Z" fill="#226357"/>
<path fill-rule="evenodd" clip-rule="evenodd" d="M24.5854 6.5998C24.5854 5.60569 25.3716 4.7998 26.3415 4.7998H39.2195C44.0689 4.7998 48 8.82924 48 13.7998V38.9998C48 43.9704 44.0689 47.9998 39.2195 47.9998H15.8049C10.9556 47.9998 7.02441 43.9704 7.02441 38.9998V28.1998C7.02441 27.2057 7.81065 26.3998 8.78051 26.3998C9.75038 26.3998 10.5366 27.2057 10.5366 28.1998V38.9998C10.5366 41.9821 12.8953 44.3998 15.8049 44.3998H39.2195C42.1291 44.3998 44.4878 41.9821 44.4878 38.9998V13.7998C44.4878 10.8175 42.1291 8.3998 39.2195 8.3998H26.3415C25.3716 8.3998 24.5854 7.59392 24.5854 6.5998Z" fill="#90B1AB"/>
<path fill-rule="evenodd" clip-rule="evenodd" d="M41.561 37.1998C38.6514 37.1998 36.2927 39.6175 36.2927 42.5998V44.9998C36.2927 45.9939 35.5065 46.7998 34.5366 46.7998C33.5667 46.7998 32.7805 45.9939 32.7805 44.9998V42.5998C32.7805 37.6292 36.7117 33.5998 41.561 33.5998H45.0732C46.0431 33.5998 46.8293 34.4057 46.8293 35.3998C46.8293 36.3939 46.0431 37.1998 45.0732 37.1998H41.561Z" fill="#90B1AB"/>
<path fill-rule="evenodd" clip-rule="evenodd" d="M22.2439 19.7998C22.2439 18.8057 23.0302 17.9998 24 17.9998H35.7073C36.6772 17.9998 37.4634 18.8057 37.4634 19.7998C37.4634 20.7939 36.6772 21.5998 35.7073 21.5998H24C23.0302 21.5998 22.2439 20.7939 22.2439 19.7998Z" fill="#90B1AB"/>
<path fill-rule="evenodd" clip-rule="evenodd" d="M18.7317 29.3998C18.7317 28.4057 19.518 27.5998 20.4878 27.5998H32.1951C33.165 27.5998 33.9512 28.4057 33.9512 29.3998C33.9512 30.3939 33.165 31.1998 32.1951 31.1998H20.4878C19.518 31.1998 18.7317 30.3939 18.7317 29.3998Z" fill="#90B1AB"/>
</svg>
